<?xml version="1.0" encoding="UTF-8" standalone="no"?><!-- Generator: Gravit.io --><svg xmlns="http://www.w3.org/2000/svg" xmlns:xlink="http://www.w3.org/1999/xlink" style="isolation:isolate" viewBox="0 0 175 220.098" width="175pt" height="220.098pt"><defs><clipPath id="_clipPath_r4GadJB58Cb77XGQoMqWPsvBtUY7hnh7"><rect width="175" height="220.098"/></clipPath></defs><g clip-path="url(#_clipPath_r4GadJB58Cb77XGQoMqWPsvBtUY7hnh7)"><path d=" M 87.5 38.096 C 97.432 38.096 106.734 41.96 113.75 48.98 L 157.342 92.598 C 164.357 99.617 168.22 108.925 168.22 118.863 C 168.22 128.801 164.357 138.108 157.342 145.128 L 113.75 188.746 C 106.734 195.765 97.432 199.63 87.5 199.63 C 77.568 199.63 68.266 195.765 61.25 188.746 L 17.659 145.128 C 10.643 138.108 6.78 128.801 6.78 118.863 C 6.78 108.925 10.643 99.617 17.659 92.598 L 61.25 48.98 C 68.266 41.96 77.568 38.096 87.5 38.096 Z  M 87.5 31.391 C 76.307 31.391 65.034 35.651 56.521 44.248 L 12.929 87.865 C -4.177 104.981 -4.177 132.745 12.929 149.939 L 56.521 193.557 C 65.113 202.154 76.307 206.413 87.5 206.413 C 98.694 206.413 109.966 202.154 118.479 193.557 L 162.071 149.939 C 179.177 132.824 179.177 105.06 162.071 87.865 L 118.479 44.248 C 109.966 35.651 98.773 31.391 87.5 31.391 Z " fill="rgb(11,115,59)"/><radialGradient id="_rgradient_0" fx="0.49872445388123793" fy="0.1650594622237902" cx="0.5" cy="0.5" r="1" gradientTransform="matrix(175,0,0,105.592,0,100.801)" gradientUnits="userSpaceOnUse"><stop offset="0%" stop-opacity="1" style="stop-color:rgb(104,229,160)"/><stop offset="0.567427%" stop-opacity="1" style="stop-color:rgb(4,211,97)"/><stop offset="58.4253%" stop-opacity="0" style="stop-color:rgb(4,211,97)"/></radialGradient><path d=" M 162.15 149.939 L 118.479 193.557 C 101.374 210.672 73.626 210.672 56.442 193.557 L 12.85 149.939 C -0.236 136.846 -3.31 117.601 3.548 101.59 C 5.677 101.037 7.884 100.801 10.17 100.801 C 25.226 100.801 37.365 113.026 37.365 128.012 C 37.365 132.193 36.42 136.058 34.764 139.607 C 36.892 138.897 39.1 138.503 41.465 138.503 C 51.239 138.503 59.437 145.207 61.644 154.277 C 62.354 154.12 63.063 154.12 63.852 154.12 C 71.419 154.12 77.568 160.114 77.883 167.607 C 80.8 166.109 84.032 165.241 87.5 165.241 C 90.968 165.241 94.279 166.109 97.117 167.607 C 97.432 160.114 103.581 154.12 111.148 154.12 C 111.858 154.12 112.646 154.199 113.356 154.277 C 115.563 145.207 123.761 138.503 133.536 138.503 C 135.9 138.503 138.108 138.897 140.236 139.607 C 138.58 136.058 137.635 132.193 137.635 128.012 C 137.635 112.947 149.774 100.801 164.83 100.801 C 167.116 100.801 169.323 101.116 171.452 101.59 C 178.31 117.522 175.235 136.846 162.15 149.939 Z " fill="url(#_rgradient_0)"/><linearGradient id="_lgradient_0" x1="0.5004638478132091" y1="0.0001772251986966733" x2="0.5004638478132089" y2="1.3109484274671794" gradientTransform="matrix(35.788,0,0,73.353,69.606,122.965)" gradientUnits="userSpaceOnUse"><stop offset="0%" stop-opacity="1" style="stop-color:rgb(6,182,86)"/><stop offset="38.0208%" stop-opacity="0" style="stop-color:rgb(8,153,74)"/></linearGradient><path d=" M 97.275 122.965 L 87.5 122.965 L 77.804 122.965 L 69.606 196.318 L 87.5 196.318 L 105.394 196.318 L 97.275 122.965 Z " fill="url(#_lgradient_0)"/><linearGradient id="_lgradient_1" x1="0.49864290771772524" y1="0.0001772251986966733" x2="0.498642907717725" y2="1.3109484274671792" gradientTransform="matrix(16.948,0,0,73.353,79.065,122.965)" gradientUnits="userSpaceOnUse"><stop offset="0%" stop-opacity="1" style="stop-color:rgb(6,182,86)"/><stop offset="46.33%" stop-opacity="0" style="stop-color:rgb(8,153,74)"/></linearGradient><path d=" M 92.151 122.965 L 87.5 122.965 L 82.928 122.965 L 79.065 196.318 L 87.5 196.318 L 96.013 196.318 L 92.151 122.965 Z " fill="url(#_lgradient_1)"/><path d=" M 87.5 0 C 82.298 0 69.606 26.423 69.606 37.86 C 69.606 58.209 69.606 118.864 69.606 118.864 L 87.5 118.864 L 105.394 118.864 C 105.394 118.864 105.394 58.209 105.394 37.86 C 105.394 26.502 92.782 0 87.5 0 Z " fill="rgb(255,255,255)"/><path d=" M 98.536 27.133 C 97.827 26.58 94.674 24.214 87.5 24.214 C 80.248 24.214 77.095 26.58 76.464 27.133 C 76.386 27.211 76.307 27.29 76.307 27.448 L 76.307 29.42 C 76.307 29.735 76.701 29.972 76.937 29.735 C 78.199 28.868 81.43 27.211 87.5 27.211 C 93.57 27.211 96.802 28.868 98.063 29.735 C 98.378 29.893 98.694 29.735 98.694 29.42 L 98.694 27.448 C 98.694 27.369 98.694 27.211 98.536 27.133 Z " fill="rgb(4,211,97)"/><path d=" M 69.607 85.421 C 69.607 85.421 48.087 102.616 46.747 127.224 C 46.668 128.565 48.008 129.669 49.269 129.196 C 55.575 127.224 59.911 118.864 69.607 118.864 L 69.607 85.421 Z " fill="rgb(4,211,97)"/><path d=" M 105.395 85.421 C 105.395 85.421 126.915 102.616 128.255 127.224 C 128.333 128.565 126.993 129.669 125.732 129.196 C 119.426 127.224 115.09 118.864 105.395 118.864 L 105.395 85.421 Z " fill="rgb(4,211,97)"/><path d=" M 87.5 118.864 L 69.606 118.864 L 73.469 127.145 C 73.469 127.145 84.111 128.25 87.5 128.25 C 90.89 128.25 101.532 127.145 101.532 127.145 L 105.394 118.864 L 87.5 118.864 Z " fill="rgb(4,211,97)"/><path d=" M 87.501 85.421 C 85.53 85.421 83.165 105.928 83.165 128.013 C 83.165 131.484 85.372 134.954 87.501 134.954 C 89.708 134.954 91.836 131.484 91.836 128.013 C 91.915 105.928 89.471 85.421 87.501 85.421 Z " fill="rgb(4,211,97)"/><path d=" M 79.145 216.667 L 67.399 204.915 C 62.748 200.261 62.748 192.847 67.399 188.193 L 79.145 176.441 C 83.796 171.788 91.205 171.788 95.856 176.441 L 107.602 188.193 C 112.252 192.847 112.252 200.261 107.602 204.915 L 95.856 216.667 C 91.284 221.242 83.796 221.242 79.145 216.667 Z " fill="rgb(6,182,86)"/><path d=" M 96.093 185.827 L 93.255 185.432 C 93.176 185.432 93.097 185.432 93.018 185.511 L 91.836 187.089 C 91.757 187.168 91.757 187.325 91.757 187.404 C 91.757 187.483 91.678 187.641 91.599 187.562 L 90.575 187.325 C 90.417 187.325 90.259 187.325 90.18 187.483 L 86.239 192.531 C 86.16 192.61 86.003 192.689 85.924 192.61 L 84.426 191.9 C 84.268 191.821 84.111 191.821 84.032 191.9 L 83.244 192.452 C 83.086 192.531 82.928 192.531 82.849 192.452 L 82.455 192.295 C 82.219 192.137 81.904 192.295 81.904 192.531 L 81.667 193.714 C 81.588 194.03 81.746 194.266 81.982 194.424 L 82.534 194.74 L 84.347 195.844 L 85.214 196.396 C 85.451 196.554 85.766 196.554 86.003 196.317 L 87.5 194.976 C 87.658 194.897 87.816 194.819 87.973 194.897 L 88.446 195.134 C 88.604 195.213 88.762 195.213 88.919 195.055 L 89.707 194.345 C 89.865 194.266 90.023 194.188 90.18 194.266 L 91.284 194.819 C 91.442 194.897 91.678 194.819 91.757 194.661 L 92.309 194.03 L 96.25 188.982 C 96.408 188.745 96.329 188.43 96.014 188.351 L 95.147 188.193 C 94.989 188.114 94.91 187.956 94.989 187.799 L 96.329 186.142 C 96.408 186.063 96.25 185.827 96.093 185.827 Z " fill="rgb(255,255,255)"/><path d=" M 83.086 196.002 C 83.008 195.923 82.929 196.002 82.929 196.081 L 83.323 197.185 C 83.323 197.264 83.323 197.343 83.323 197.422 L 82.929 198.841 C 82.929 198.92 82.929 198.999 83.008 199.078 L 84.032 199.867 C 84.111 199.946 84.269 199.946 84.348 199.867 L 85.451 198.92 C 85.53 198.841 85.609 198.841 85.688 198.841 L 86.949 198.684 C 87.028 198.684 87.028 198.526 87.028 198.526 L 83.086 196.002 Z " fill="rgb(255,255,255)"/><path d=" M 82.692 199.709 C 82.613 199.63 82.534 199.63 82.455 199.709 L 81.588 200.103 C 81.509 200.103 81.509 200.182 81.509 200.261 L 79.617 204.914 C 79.617 204.914 79.617 204.914 79.696 204.914 L 80.09 204.757 C 80.09 204.757 80.09 204.757 80.169 204.757 L 80.169 204.836 L 78.829 207.044 C 78.829 207.123 78.829 207.123 78.908 207.123 L 83.795 202.154 C 83.874 202.075 83.874 202.075 83.874 201.996 L 83.953 200.734 C 83.953 200.655 83.953 200.576 83.874 200.498 L 82.692 199.709 Z " fill="rgb(255,255,255)"/></g></svg>