<svg width="31" height="28" viewBox="0 0 31 28" fill="none" xmlns="http://www.w3.org/2000/svg">
<g clip-path="url(#clip0)">
<path d="M9.60738 10.1682L15.4358 6.80319C15.5075 6.76179 15.5888 6.73999 15.6716 6.73999C15.7544 6.73999 15.8357 6.76179 15.9074 6.80319L21.7358 10.1682C21.8075 10.2096 21.867 10.2692 21.9084 10.3408C21.9497 10.4125 21.9715 10.4938 21.9716 10.5766V17.3067C21.9716 17.475 21.8816 17.6307 21.7358 17.715L15.9074 21.0801C15.8357 21.1215 15.7544 21.1433 15.6716 21.1433C15.5888 21.1433 15.5075 21.1215 15.4358 21.0801L9.60738 17.715C9.53571 17.6736 9.47618 17.6141 9.43479 17.5424C9.3934 17.4707 9.3716 17.3894 9.37158 17.3067V10.5765C9.3717 10.408 9.46158 10.2525 9.60738 10.1681" fill="#3B6061"/>
<path d="M30.7823 13.39L23.811 1.262C23.5578 0.82352 23.0901 0.5 22.5837 0.5H8.64098C8.13458 0.5 7.66658 0.82352 7.41338 1.262L0.442219 13.3633C0.189019 13.8019 0.189019 14.3554 0.442219 14.794L7.41338 26.8227C7.66658 27.2612 8.13458 27.4854 8.64098 27.4854H22.5835C23.0899 27.4854 23.5578 27.2679 23.8109 26.8293L30.7822 14.7811C31.0356 14.3427 31.0356 13.8285 30.7822 13.39H30.7823ZM25.0097 19.222C25.0097 19.4002 24.9024 19.5652 24.7479 19.6545L15.868 24.7777C15.7915 24.8215 15.7049 24.8445 15.6168 24.8445C15.5287 24.8445 15.4421 24.8215 15.3657 24.7777L6.47894 19.6545C6.3245 19.5652 6.21638 19.4004 6.21638 19.2219V8.97536C6.21638 8.79692 6.32294 8.63216 6.4775 8.54288L15.3569 3.4196C15.4333 3.37572 15.5199 3.35263 15.608 3.35263C15.6961 3.35263 15.7827 3.37572 15.8591 3.4196L24.7463 8.54288C24.901 8.63216 25.0097 8.79692 25.0097 8.97536V19.2219V19.222Z" fill="#3B6061"/>
</g>
<defs>
<clipPath id="clip0">
<rect width="30.7232" height="27" fill="white" transform="translate(0.25 0.5)"/>
</clipPath>
</defs>
</svg>
