<svg width="28" height="28" viewBox="0 0 28 28" fill="none" xmlns="http://www.w3.org/2000/svg">
<g clip-path="url(#clip0)">
<path d="M22.0798 5.64282H20.563C20.2718 5.64282 20.0357 5.87892 20.0357 6.17017V6.40114C20.0357 6.69239 20.2718 6.92849 20.563 6.92849H22.0798C22.371 6.92849 22.6071 6.69239 22.6071 6.40114V6.17017C22.6071 5.87892 22.371 5.64282 22.0798 5.64282Z" fill="#3B6061"/>
<path d="M7.93696 26.2144H1.27734C0.9861 26.2144 0.75 26.4505 0.75 26.7417V26.9727C0.75 27.2639 0.9861 27.5 1.27734 27.5H7.93696C8.2282 27.5 8.4643 27.2639 8.4643 26.9727V26.7417C8.4643 26.4505 8.2282 26.2144 7.93696 26.2144Z" fill="#3B6061"/>
<path d="M20.7941 15.9287H16.7059C16.4147 15.9287 16.1786 16.1648 16.1786 16.4561V16.687C16.1786 16.9783 16.4147 17.2144 16.7059 17.2144H20.7941C21.0854 17.2144 21.3215 16.9783 21.3215 16.687V16.4561C21.3215 16.1648 21.0854 15.9287 20.7941 15.9287Z" fill="#3B6061"/>
<path d="M14.3655 15.9287H8.99164C8.70039 15.9287 8.46429 16.1648 8.46429 16.4561V16.687C8.46429 16.9783 8.70039 17.2144 8.99164 17.2144H14.3655C14.6567 17.2144 14.8928 16.9783 14.8928 16.687V16.4561C14.8928 16.1648 14.6567 15.9287 14.3655 15.9287Z" fill="#3B6061"/>
<path d="M6.65119 15.9287H1.27734C0.9861 15.9287 0.75 16.1648 0.75 16.4561V16.687C0.75 16.9783 0.9861 17.2144 1.27734 17.2144H6.65119C6.94243 17.2144 7.17853 16.9783 7.17853 16.687V16.4561C7.17853 16.1648 6.94243 15.9287 6.65119 15.9287Z" fill="#3B6061"/>
<path d="M7.93696 21.0715H1.27734C0.9861 21.0715 0.75 21.3076 0.75 21.5989V21.8299C0.75 22.1211 0.9861 22.3572 1.27734 22.3572H7.93696C8.2282 22.3572 8.4643 22.1211 8.4643 21.8299V21.5989C8.4643 21.3076 8.2282 21.0715 7.93696 21.0715Z" fill="#3B6061"/>
<path d="M7.93696 10.7856H1.27734C0.9861 10.7856 0.75 11.0217 0.75 11.313V11.544C0.75 11.8352 0.9861 12.0713 1.27734 12.0713H7.93696C8.2282 12.0713 8.4643 11.8352 8.4643 11.544V11.313C8.4643 11.0217 8.2282 10.7856 7.93696 10.7856Z" fill="#3B6061"/>
<path d="M20.794 3.07153H7.70586C7.41461 3.07153 7.17851 3.30763 7.17851 3.59888V3.82985C7.17851 4.1211 7.41461 4.3572 7.70586 4.3572H20.794C21.0852 4.3572 21.3213 4.1211 21.3213 3.82985V3.59888C21.3213 3.30763 21.0852 3.07153 20.794 3.07153Z" fill="#3B6061"/>
<path d="M5.36552 3.07153H1.27734C0.9861 3.07153 0.75 3.30763 0.75 3.59888V3.82985C0.75 4.1211 0.9861 4.3572 1.27734 4.3572H5.36552C5.65677 4.3572 5.89287 4.1211 5.89287 3.82985V3.59888C5.89287 3.30763 5.65677 3.07153 5.36552 3.07153Z" fill="#3B6061"/>
<path d="M7.93694 23.6428H6.4202C6.12895 23.6428 5.89285 23.8789 5.89285 24.1702V24.4011C5.89285 24.6924 6.12895 24.9285 6.4202 24.9285H7.93694C8.22819 24.9285 8.46428 24.6924 8.46428 24.4011V24.1702C8.46428 23.8789 8.22819 23.6428 7.93694 23.6428Z" fill="#3B6061"/>
<path d="M7.93694 8.21436H6.4202C6.12895 8.21436 5.89285 8.45046 5.89285 8.7417V8.97268C5.89285 9.26392 6.12895 9.50002 6.4202 9.50002H7.93694C8.22819 9.50002 8.46428 9.26392 8.46428 8.97268V8.7417C8.46428 8.45046 8.22819 8.21436 7.93694 8.21436Z" fill="#3B6061"/>
<path d="M4.07975 23.6428H1.27734C0.9861 23.6428 0.75 23.8789 0.75 24.1702V24.4011C0.75 24.6924 0.9861 24.9285 1.27734 24.9285H4.07975C4.371 24.9285 4.6071 24.6924 4.6071 24.4011V24.1702C4.6071 23.8789 4.371 23.6428 4.07975 23.6428Z" fill="#3B6061"/>
<path d="M4.07975 8.21436H1.27734C0.9861 8.21436 0.75 8.45046 0.75 8.7417V8.97268C0.75 9.26392 0.9861 9.50002 1.27734 9.50002H4.07975C4.371 9.50002 4.6071 9.26392 4.6071 8.97268V8.7417C4.6071 8.45046 4.371 8.21436 4.07975 8.21436Z" fill="#3B6061"/>
<path opacity="0.5" d="M19.5084 23.6428H17.9916C17.7004 23.6428 17.4643 23.8789 17.4643 24.1702V24.4011C17.4643 24.6924 17.7004 24.9285 17.9916 24.9285H19.5084C19.7996 24.9285 20.0357 24.6924 20.0357 24.4011V24.1702C20.0357 23.8789 19.7996 23.6428 19.5084 23.6428Z" fill="#D0D4D8"/>
<path opacity="0.5" d="M15.6512 23.6428H10.2773C9.98607 23.6428 9.74997 23.8789 9.74997 24.1702V24.4011C9.74997 24.6924 9.98607 24.9285 10.2773 24.9285H15.6512C15.9424 24.9285 16.1785 24.6924 16.1785 24.4011V24.1702C16.1785 23.8789 15.9424 23.6428 15.6512 23.6428Z" fill="#D0D4D8"/>
<path opacity="0.5" d="M27.2227 23.6428H21.8488C21.5576 23.6428 21.3215 23.8789 21.3215 24.1702V24.4011C21.3215 24.6924 21.5576 24.9285 21.8488 24.9285H27.2227C27.5139 24.9285 27.75 24.6924 27.75 24.4011V24.1702C27.75 23.8789 27.5139 23.6428 27.2227 23.6428Z" fill="#D0D4D8"/>
<path d="M22.0798 13.3572H11.5631C11.2718 13.3572 11.0357 13.5933 11.0357 13.8845V14.1155C11.0357 14.4067 11.2718 14.6428 11.5631 14.6428H22.0798C22.371 14.6428 22.6071 14.4067 22.6071 14.1155V13.8845C22.6071 13.5933 22.371 13.3572 22.0798 13.3572Z" fill="#3B6061"/>
<path d="M9.22264 13.3572H5.13446C4.84322 13.3572 4.60712 13.5933 4.60712 13.8845V14.1155C4.60712 14.4067 4.84322 14.6428 5.13446 14.6428H9.22264C9.51389 14.6428 9.74998 14.4067 9.74998 14.1155V13.8845C9.74998 13.5933 9.51389 13.3572 9.22264 13.3572Z" fill="#3B6061"/>
<path d="M2.79409 13.3572H1.27734C0.9861 13.3572 0.75 13.5933 0.75 13.8845V14.1155C0.75 14.4067 0.9861 14.6428 1.27734 14.6428H2.79409C3.08533 14.6428 3.32143 14.4067 3.32143 14.1155V13.8845C3.32143 13.5933 3.08533 13.3572 2.79409 13.3572Z" fill="#3B6061"/>
<path d="M18.2226 5.64282H12.8488C12.5575 5.64282 12.3214 5.87892 12.3214 6.17017V6.40114C12.3214 6.69239 12.5575 6.92849 12.8488 6.92849H18.2226C18.5138 6.92849 18.7499 6.69239 18.7499 6.40114V6.17017C18.7499 5.87892 18.5138 5.64282 18.2226 5.64282Z" fill="#3B6061"/>
<path d="M10.5084 5.64282H1.27734C0.9861 5.64282 0.75 5.87892 0.75 6.17017V6.40114C0.75 6.69239 0.9861 6.92849 1.27734 6.92849H10.5084C10.7996 6.92849 11.0357 6.69239 11.0357 6.40114V6.17017C11.0357 5.87892 10.7996 5.64282 10.5084 5.64282Z" fill="#3B6061"/>
<path d="M16.9369 18.5H5.13446C4.84322 18.5 4.60712 18.7361 4.60712 19.0273V19.2583C4.60712 19.5496 4.84322 19.7857 5.13446 19.7857H16.9369C17.2282 19.7857 17.4643 19.5496 17.4643 19.2583V19.0273C17.4643 18.7361 17.2282 18.5 16.9369 18.5Z" fill="#3B6061"/>
<path d="M2.79409 18.5H1.27734C0.9861 18.5 0.75 18.7361 0.75 19.0273V19.2583C0.75 19.5496 0.9861 19.7857 1.27734 19.7857H2.79409C3.08533 19.7857 3.32143 19.5496 3.32143 19.2583V19.0273C3.32143 18.7361 3.08533 18.5 2.79409 18.5Z" fill="#3B6061"/>
<path d="M23.3655 8.21436H16.7059C16.4147 8.21436 16.1786 8.45046 16.1786 8.7417V8.97268C16.1786 9.26392 16.4147 9.50002 16.7059 9.50002H23.3655C23.6568 9.50002 23.8929 9.26392 23.8929 8.97268V8.7417C23.8929 8.45046 23.6568 8.21436 23.3655 8.21436Z" fill="#3B6061"/>
<path d="M23.3655 10.7856H16.7059C16.4147 10.7856 16.1786 11.0217 16.1786 11.313V11.544C16.1786 11.8352 16.4147 12.0713 16.7059 12.0713H23.3655C23.6568 12.0713 23.8929 11.8352 23.8929 11.544V11.313C23.8929 11.0217 23.6568 10.7856 23.3655 10.7856Z" fill="#3B6061"/>
<path d="M16.9369 0.5H1.27734C0.9861 0.5 0.75 0.7361 0.75 1.02734V1.25832C0.75 1.54956 0.9861 1.78566 1.27734 1.78566H16.9369C17.2282 1.78566 17.4643 1.54956 17.4643 1.25832V1.02734C17.4643 0.7361 17.2282 0.5 16.9369 0.5Z" fill="#3B6061"/>
<path opacity="0.5" d="M27.2227 0.5H19.2774C18.9861 0.5 18.75 0.7361 18.75 1.02734V1.25832C18.75 1.54956 18.9861 1.78566 19.2774 1.78566H27.2227C27.5139 1.78566 27.75 1.54956 27.75 1.25832V1.02734C27.75 0.7361 27.5139 0.5 27.2227 0.5Z" fill="#D0D4D8"/>
<path opacity="0.5" d="M22.0798 18.5H19.2774C18.9861 18.5 18.75 18.7361 18.75 19.0273V19.2583C18.75 19.5496 18.9861 19.7857 19.2774 19.7857H22.0798C22.371 19.7857 22.6071 19.5496 22.6071 19.2583V19.0273C22.6071 18.7361 22.371 18.5 22.0798 18.5Z" fill="#D0D4D8"/>
<path opacity="0.5" d="M27.2226 18.5H24.4202C24.129 18.5 23.8929 18.7361 23.8929 19.0273V19.2583C23.8929 19.5496 24.129 19.7857 24.4202 19.7857H27.2226C27.5139 19.7857 27.75 19.5496 27.75 19.2583V19.0273C27.75 18.7361 27.5139 18.5 27.2226 18.5Z" fill="#D0D4D8"/>
<path opacity="0.5" d="M27.2227 15.9287H23.1345C22.8433 15.9287 22.6072 16.1648 22.6072 16.4561V16.687C22.6072 16.9783 22.8433 17.2144 23.1345 17.2144H27.2227C27.5139 17.2144 27.75 16.9783 27.75 16.687V16.4561C27.75 16.1648 27.5139 15.9287 27.2227 15.9287Z" fill="#D0D4D8"/>
<path opacity="0.5" d="M27.2227 3.07153H23.1345C22.8433 3.07153 22.6072 3.30763 22.6072 3.59888V3.82985C22.6072 4.1211 22.8433 4.3572 23.1345 4.3572H27.2227C27.5139 4.3572 27.75 4.1211 27.75 3.82985V3.59888C27.75 3.30763 27.5139 3.07153 27.2227 3.07153Z" fill="#D0D4D8"/>
<path opacity="0.5" d="M27.2226 13.3572H24.4202C24.129 13.3572 23.8929 13.5933 23.8929 13.8845V14.1155C23.8929 14.4067 24.129 14.6428 24.4202 14.6428H27.2226C27.5139 14.6428 27.75 14.4067 27.75 14.1155V13.8845C27.75 13.5933 27.5139 13.3572 27.2226 13.3572Z" fill="#D0D4D8"/>
<path opacity="0.5" d="M27.2226 5.64282H24.4202C24.129 5.64282 23.8929 5.87892 23.8929 6.17017V6.40114C23.8929 6.69239 24.129 6.92849 24.4202 6.92849H27.2226C27.5139 6.92849 27.75 6.69239 27.75 6.40114V6.17017C27.75 5.87892 27.5139 5.64282 27.2226 5.64282Z" fill="#D0D4D8"/>
<path opacity="0.5" d="M27.2226 8.21436H25.7059C25.4147 8.21436 25.1786 8.45046 25.1786 8.7417V8.97268C25.1786 9.26392 25.4147 9.50002 25.7059 9.50002H27.2226C27.5139 9.50002 27.75 9.26392 27.75 8.97268V8.7417C27.75 8.45046 27.5139 8.21436 27.2226 8.21436Z" fill="#D0D4D8"/>
<path opacity="0.5" d="M27.2226 10.7856H25.7059C25.4147 10.7856 25.1786 11.0217 25.1786 11.313V11.544C25.1786 11.8352 25.4147 12.0713 25.7059 12.0713H27.2226C27.5139 12.0713 27.75 11.8352 27.75 11.544V11.313C27.75 11.0217 27.5139 10.7856 27.2226 10.7856Z" fill="#D0D4D8"/>
<path opacity="0.5" d="M27.2226 21.0715H15.4202C15.1289 21.0715 14.8928 21.3076 14.8928 21.5989V21.8299C14.8928 22.1211 15.1289 22.3572 15.4202 22.3572H27.2226C27.5139 22.3572 27.75 22.1211 27.75 21.8299V21.5989C27.75 21.3076 27.5139 21.0715 27.2226 21.0715Z" fill="#D0D4D8"/>
<path opacity="0.5" d="M13.0797 21.0715H10.2773C9.98607 21.0715 9.74997 21.3076 9.74997 21.5989V21.8299C9.74997 22.1211 9.98607 22.3572 10.2773 22.3572H13.0797C13.371 22.3572 13.6071 22.1211 13.6071 21.8299V21.5989C13.6071 21.3076 13.371 21.0715 13.0797 21.0715Z" fill="#D0D4D8"/>
<path opacity="0.5" d="M27.2227 26.2144H20.563C20.2718 26.2144 20.0357 26.4505 20.0357 26.7417V26.9727C20.0357 27.2639 20.2718 27.5 20.563 27.5H27.2227C27.5139 27.5 27.75 27.2639 27.75 26.9727V26.7417C27.75 26.4505 27.5139 26.2144 27.2227 26.2144Z" fill="#D0D4D8"/>
<path opacity="0.5" d="M18.2226 26.2144H10.2773C9.98607 26.2144 9.74997 26.4505 9.74997 26.7417V26.9727C9.74997 27.2639 9.98607 27.5 10.2773 27.5H18.2226C18.5138 27.5 18.7499 27.2639 18.7499 26.9727V26.7417C18.7499 26.4505 18.5138 26.2144 18.2226 26.2144Z" fill="#D0D4D8"/>
<path opacity="0.5" d="M14.3655 8.21436H10.2773C9.98607 8.21436 9.74997 8.45046 9.74997 8.7417V8.97268C9.74997 9.26392 9.98607 9.50002 10.2773 9.50002H14.3655C14.6567 9.50002 14.8928 9.26392 14.8928 8.97268V8.7417C14.8928 8.45046 14.6567 8.21436 14.3655 8.21436Z" fill="#D0D4D8"/>
<path opacity="0.5" d="M14.3655 10.7856H10.2773C9.98607 10.7856 9.74997 11.0217 9.74997 11.313V11.544C9.74997 11.8352 9.98607 12.0713 10.2773 12.0713H14.3655C14.6567 12.0713 14.8928 11.8352 14.8928 11.544V11.313C14.8928 11.0217 14.6567 10.7856 14.3655 10.7856Z" fill="#D0D4D8"/>
</g>
<defs>
<clipPath id="clip0">
<rect width="27" height="27" fill="white" transform="translate(0.75 0.5)"/>
</clipPath>
</defs>
</svg>
