<?xml version="1.0" encoding="UTF-8" standalone="no"?><!-- Generator: Gravit.io --><svg xmlns="http://www.w3.org/2000/svg" xmlns:xlink="http://www.w3.org/1999/xlink" style="isolation:isolate" viewBox="0 0 2000 2000" width="2000pt" height="2000pt"><defs><clipPath id="_clipPath_ATQ13K5M5Y2FT7LDiE6xvLLPsUXzww9s"><rect width="2000" height="2000"/></clipPath></defs><g clip-path="url(#_clipPath_ATQ13K5M5Y2FT7LDiE6xvLLPsUXzww9s)"><g><g><path d=" M 1004.386 645.01 L 541.672 837.718 L 557.017 1028.513 L 1004.386 837.234 L 1480.27 633.771 L 1500 438.595 L 1004.386 645.01 Z " fill="rgb(255,255,255)"/><path d=" M 541.667 837.718 L 557.012 1028.513 L 1004.381 837.234 L 1004.381 645.01 L 541.667 837.718 L 541.667 837.718 Z " fill="rgb(255,255,255)"/><path d=" M 1500 438.6 L 1004.386 645.01 L 1004.386 837.234 L 1480.27 633.771 L 1500 438.6 Z " fill="rgb(255,255,255)"/><path d=" M 542.379 837.718 L 557.729 1028.513 L 1244.157 1030.701 L 1228.803 1285.091 L 1002.928 1348.682 L 785.796 1293.858 L 772.64 1135.959 L 570.885 1135.959 L 597.204 1440.788 L 1005.121 1561.4 L 1410.827 1442.976 L 1463.463 837.718 L 542.379 837.718 L 542.379 837.718 Z " fill="rgb(255,255,255)"/><g style="opacity:0.05;"><g opacity="0.05"><path d=" M 1004.386 837.718 L 541.672 837.718 L 557.017 1028.513 L 1004.386 1029.942 L 1004.386 837.718 Z  M 1004.386 1348.074 L 1002.193 1348.687 L 785.089 1293.863 L 771.932 1135.964 L 570.183 1135.964 L 596.496 1440.793 L 1004.386 1561.405 L 1004.386 1348.074 Z " fill="rgb(0,0,0)"/></g></g><path d=" M 500 438.6 L 1500 438.6 L 1480.27 633.776 L 524.12 633.776 L 500 438.6 L 500 438.6 Z " fill="rgb(255,255,255)"/><g style="opacity:0.05;"><g opacity="0.05"><path d=" M 1004.386 438.6 L 500 438.6 L 524.12 633.776 L 1004.386 633.776 L 1004.386 438.6 L 1004.386 438.6 Z " fill="rgb(0,0,0)"/></g></g></g></g></g></svg>