<?xml version="1.0" encoding="UTF-8" standalone="no"?><!-- Generator: Gravit.io --><svg xmlns="http://www.w3.org/2000/svg" xmlns:xlink="http://www.w3.org/1999/xlink" style="isolation:isolate" viewBox="0 0 60 60" width="60pt" height="60pt"><defs><clipPath id="_clipPath_mDrJRVUdQlCwskVtuAvp167LtcNTyxhj"><rect width="60" height="60"/></clipPath></defs><g clip-path="url(#_clipPath_mDrJRVUdQlCwskVtuAvp167LtcNTyxhj)"><clipPath id="_clipPath_SPZ2hqwuIpWbCxcUyU1yk2spBS3GfJp6"><rect x="8.38" y="11" width="43.24" height="38" transform="matrix(1,0,0,1,0,0)" fill="rgb(255,255,255)"/></clipPath><g clip-path="url(#_clipPath_SPZ2hqwuIpWbCxcUyU1yk2spBS3GfJp6)"><g><path d=" M 21.55 24.607 L 29.753 19.871 C 29.853 19.813 29.968 19.782 30.084 19.782 C 30.201 19.782 30.315 19.813 30.416 19.871 L 38.619 24.607 C 38.72 24.665 38.804 24.749 38.862 24.85 C 38.92 24.951 38.951 25.065 38.951 25.182 L 38.951 34.654 C 38.951 34.891 38.824 35.11 38.619 35.229 L 30.416 39.964 C 30.315 40.023 30.201 40.053 30.084 40.053 C 29.968 40.053 29.853 40.023 29.753 39.964 L 21.55 35.229 C 21.449 35.17 21.365 35.086 21.307 34.986 C 21.248 34.885 21.218 34.77 21.218 34.654 L 21.218 25.182 C 21.218 24.944 21.344 24.726 21.55 24.607" fill="rgb(128,128,242)"/><path d=" M 51.35 29.142 L 41.539 12.072 C 41.183 11.455 40.524 11 39.812 11 L 20.189 11 C 19.476 11 18.817 11.455 18.461 12.072 L 8.65 29.104 C 8.293 29.721 8.293 30.5 8.65 31.118 L 18.461 48.047 C 18.817 48.664 19.476 48.979 20.189 48.979 L 39.811 48.979 C 40.524 48.979 41.183 48.673 41.539 48.056 L 51.35 31.099 C 51.707 30.482 51.707 29.759 51.35 29.142 L 51.35 29.142 Z  M 43.226 37.35 C 43.226 37.6 43.075 37.833 42.857 37.958 L 30.36 45.169 C 30.252 45.23 30.13 45.263 30.006 45.263 C 29.882 45.263 29.761 45.23 29.653 45.169 L 17.146 37.958 C 16.928 37.833 16.776 37.601 16.776 37.349 L 16.776 22.928 C 16.776 22.677 16.926 22.445 17.144 22.32 L 29.641 15.109 C 29.748 15.047 29.87 15.015 29.994 15.015 C 30.118 15.015 30.24 15.047 30.347 15.109 L 42.855 22.32 C 43.073 22.445 43.226 22.677 43.226 22.928 L 43.226 37.349 L 43.226 37.35 Z " fill="rgb(75,50,195)"/></g></g></g></svg>