<?xml version="1.0" encoding="UTF-8" standalone="no"?><!-- Generator: Gravit.io --><svg xmlns="http://www.w3.org/2000/svg" xmlns:xlink="http://www.w3.org/1999/xlink" style="isolation:isolate" viewBox="0 0 60 60" width="60pt" height="60pt"><defs><clipPath id="_clipPath_O7tDOBXxrDsJP5YnFZYN78JW5cNun9XL"><rect width="60" height="60"/></clipPath></defs><g clip-path="url(#_clipPath_O7tDOBXxrDsJP5YnFZYN78JW5cNun9XL)"><clipPath id="_clipPath_nmXEJq2hSxGuDC5ZScM8bvml8RnS8ymm"><rect x="11" y="11" width="38" height="38" transform="matrix(1,0,0,1,0,0)" fill="rgb(255,255,255)"/></clipPath><g clip-path="url(#_clipPath_nmXEJq2hSxGuDC5ZScM8bvml8RnS8ymm)"><g><path d=" M 48.283 28.307 L 31.692 11.717 C 30.737 10.761 29.188 10.761 28.232 11.717 L 24.786 15.162 L 29.157 19.533 C 30.172 19.189 31.337 19.42 32.147 20.229 C 32.96 21.044 33.189 22.219 32.837 23.237 L 37.049 27.45 C 38.068 27.098 39.244 27.326 40.058 28.141 C 41.195 29.278 41.195 31.121 40.058 32.258 C 38.92 33.396 37.077 33.396 35.939 32.258 C 35.083 31.402 34.872 30.145 35.305 29.091 L 31.377 25.163 L 31.377 35.5 C 31.661 35.641 31.921 35.827 32.147 36.051 C 33.284 37.188 33.284 39.031 32.147 40.17 C 31.009 41.307 29.165 41.307 28.029 40.17 C 26.891 39.031 26.891 37.188 28.029 36.051 C 28.302 35.778 28.625 35.562 28.982 35.416 L 28.982 24.982 C 28.625 24.837 28.301 24.621 28.029 24.347 C 27.167 23.486 26.96 22.222 27.402 21.164 L 23.093 16.855 L 11.717 28.23 C 10.761 29.187 10.761 30.737 11.717 31.692 L 28.308 48.283 C 29.264 49.239 30.813 49.239 31.769 48.283 L 48.283 31.769 C 49.239 30.813 49.239 29.263 48.283 28.307" fill="rgb(222,76,54)"/></g></g></g></svg>