<?xml version="1.0" encoding="UTF-8" standalone="no"?><!-- Generator: Gravit.io --><svg xmlns="http://www.w3.org/2000/svg" xmlns:xlink="http://www.w3.org/1999/xlink" style="isolation:isolate" viewBox="0 0 2000 2000" width="2000pt" height="2000pt"><defs><clipPath id="_clipPath_Ibd3ICBrqFD3yWcYUD2O7j6bXfIaBlHi"><rect width="2000" height="2000"/></clipPath></defs><g clip-path="url(#_clipPath_Ibd3ICBrqFD3yWcYUD2O7j6bXfIaBlHi)"><g><path d=" M 1000.598 838.819 L 736.433 838.819 L 718.184 634.394 L 1000.598 634.394 L 1000.598 434.76 L 500 434.76 L 504.784 488.318 L 553.849 1038.445 L 1000.598 1038.445 L 1000.598 838.819 Z  M 1000.598 1357.278 L 999.721 1357.517 L 777.387 1297.479 L 763.172 1138.269 L 562.772 1138.269 L 590.744 1451.72 L 999.685 1565.24 L 1000.598 1564.982 L 1000.598 1357.278 Z " fill="rgb(255,255,255)"/><path d=" M 999.909 838.819 L 999.909 1038.445 L 1245.743 1038.445 L 1222.566 1297.356 L 999.909 1357.444 L 999.909 1565.135 L 1409.176 1451.72 L 1412.17 1417.982 L 1459.089 892.427 L 1463.96 838.819 L 1410.169 838.819 L 999.909 838.819 Z  M 999.909 434.76 L 999.909 634.394 L 1482.129 634.394 L 1486.126 589.52 L 1495.223 488.318 L 1500 434.76 L 999.909 434.76 Z " fill="rgb(255,255,255)"/></g></g></svg>