<?xml version="1.0" encoding="UTF-8" standalone="no"?><!-- Generator: Gravit.io --><svg xmlns="http://www.w3.org/2000/svg" xmlns:xlink="http://www.w3.org/1999/xlink" style="isolation:isolate" viewBox="0 0 2000 2000" width="2000pt" height="2000pt"><defs><clipPath id="_clipPath_4WOpqTEiegJ3J0PEXfvZ1VpUdLxIHy4N"><rect width="2000" height="2000"/></clipPath></defs><g clip-path="url(#_clipPath_4WOpqTEiegJ3J0PEXfvZ1VpUdLxIHy4N)"><g><path d=" M 1524.829 989.87 C 1524.829 957.15 1511.829 925.773 1488.696 902.636 C 1465.559 879.503 1434.182 866.503 1401.462 866.503 C 1397.133 866.5 1392.804 866.723 1388.494 867.169 L 1557.964 367.37 L 837.808 367.37 L 1007.041 866.743 C 1004.578 866.743 1002.07 866.503 999.563 866.503 C 970.104 866.472 941.605 876.98 919.217 896.134 C 896.834 915.285 882.044 941.814 877.52 970.927 C 872.995 1000.035 879.039 1029.802 894.554 1054.844 C 910.073 1079.887 934.035 1098.551 962.115 1107.456 C 935.877 1152.638 903.2 1193.766 865.122 1229.543 C 815.552 1276.93 756.661 1313.477 692.193 1336.857 C 656.076 1319.743 627.827 1289.519 613.187 1252.326 C 598.548 1215.133 598.615 1173.762 613.376 1136.617 C 617.021 1128.098 620.713 1119.479 624.216 1110.865 C 651.723 1104.387 676.172 1088.669 693.481 1066.329 C 710.789 1043.989 719.906 1016.392 719.308 988.136 C 718.714 959.885 708.441 932.693 690.204 911.107 C 671.97 889.517 646.88 874.843 619.124 869.529 C 591.369 864.219 562.632 868.592 537.715 881.923 C 512.798 895.249 493.209 916.728 482.223 942.763 C 471.237 968.798 469.519 997.815 477.356 1024.966 C 485.192 1052.117 502.109 1075.753 525.279 1091.929 C 485.901 1163.33 455.848 1239.489 435.857 1318.539 C 419.099 1419.606 435.857 1526.828 523.196 1587.469 C 726.751 1728.583 947.772 1499.988 1180.772 1442.564 C 1265.224 1421.735 1357.911 1425.095 1432.281 1382.019 C 1459.149 1366.719 1482.318 1345.687 1500.145 1320.425 C 1517.972 1295.159 1530.019 1266.282 1535.433 1235.838 C 1540.38 1206.829 1539.447 1177.122 1532.69 1148.48 C 1525.933 1119.842 1513.488 1092.85 1496.091 1069.111 C 1514.652 1046.935 1524.809 1018.931 1524.781 990.01 L 1524.829 989.87 Z  M 1122.973 990.532 L 1122.973 990.105 C 1123.009 968.878 1117.552 947.997 1107.132 929.5 C 1096.715 911.003 1081.69 895.516 1063.517 884.542 L 1198.145 611.825 L 1333.06 887.049 C 1316.134 898.299 1302.257 913.559 1292.666 931.478 C 1283.079 949.392 1278.072 969.404 1278.1 989.727 L 1278.1 992.425 L 1122.973 990.532 Z " fill="rgb(198,61,20)"/><path d=" M 1554.982 989.87 C 1554.934 954.1 1542.413 919.467 1519.575 891.937 C 1496.737 864.407 1465.013 845.703 1429.865 839.049 L 1600 337.263 L 795.819 337.263 L 966.237 840.042 C 936.482 846.695 909.387 862.055 888.407 884.171 C 867.422 906.288 853.502 934.148 848.423 964.21 C 843.345 994.267 847.335 1025.162 859.888 1052.943 C 872.437 1080.724 892.983 1104.136 918.899 1120.193 C 897.488 1151.996 872.593 1181.308 844.672 1207.578 C 801.448 1248.929 750.657 1281.558 695.083 1303.674 C 669 1288.534 649.228 1264.524 639.374 1236.021 C 629.519 1207.519 630.239 1176.421 641.398 1148.405 L 643.292 1144.004 L 646.796 1135.72 C 678.348 1124.781 705.472 1103.857 724.068 1076.123 C 742.665 1048.386 751.714 1015.347 749.852 982.005 C 747.986 948.667 735.31 916.84 713.739 891.351 C 692.165 865.858 662.877 848.09 630.304 840.74 C 597.731 833.385 563.649 836.845 533.219 850.598 C 502.789 864.351 477.669 887.643 461.662 916.947 C 445.656 946.255 439.635 979.98 444.511 1013.011 C 449.387 1046.046 464.895 1076.594 488.686 1100.026 C 483.574 1110.96 478.177 1122.039 472.639 1133.448 C 441.946 1189.879 419.621 1250.476 406.365 1313.333 C 384.353 1445.88 419.856 1552.058 506.296 1611.941 C 552.699 1645.124 608.354 1662.891 665.4 1662.736 C 766.324 1662.736 868.435 1612.037 968.366 1562.426 C 1038.187 1524.452 1111.847 1494.016 1188.111 1471.632 C 1215.426 1464.907 1243.542 1460.837 1273.32 1456.532 C 1333.981 1451.685 1393.135 1435.161 1447.525 1407.866 C 1478.196 1390.346 1504.642 1366.296 1524.988 1337.419 C 1545.331 1308.542 1559.08 1275.542 1565.255 1240.761 C 1575.312 1181.671 1563.696 1120.938 1532.542 1069.729 C 1547.28 1045.683 1555.062 1018.022 1555.03 989.822 L 1554.982 989.87 Z  M 1494.72 989.87 C 1494.72 1008.315 1489.25 1026.345 1479.005 1041.681 C 1468.756 1057.017 1454.19 1068.968 1437.152 1076.028 C 1420.11 1083.084 1401.359 1084.933 1383.268 1081.334 C 1365.182 1077.734 1348.563 1068.852 1335.519 1055.813 C 1322.48 1042.769 1313.598 1026.154 1309.999 1008.064 C 1306.399 989.974 1308.249 971.222 1315.304 954.18 C 1322.364 937.142 1334.316 922.576 1349.651 912.331 C 1364.991 902.082 1383.017 896.613 1401.462 896.613 C 1426.19 896.637 1449.893 906.471 1467.377 923.955 C 1484.861 941.44 1494.696 965.143 1494.72 989.87 Z  M 1515.879 397.525 L 1365.629 840.612 C 1359.195 842.167 1352.868 844.144 1346.693 846.528 L 1198.288 543.564 L 1049.409 844.73 C 1042.927 842.486 1036.302 840.68 1029.573 839.332 L 879.844 397.525 L 1515.879 397.525 Z  M 999.563 896.613 C 1018.004 896.613 1036.034 902.082 1051.37 912.331 C 1066.71 922.576 1078.661 937.142 1085.721 954.18 C 1092.777 971.222 1094.622 989.974 1091.027 1008.064 C 1087.427 1026.154 1078.545 1042.769 1065.502 1055.813 C 1052.462 1068.852 1035.843 1077.734 1017.753 1081.334 C 999.667 1084.933 980.915 1083.084 963.873 1076.028 C 946.835 1068.968 932.269 1057.017 922.02 1041.681 C 911.775 1026.345 906.306 1008.315 906.306 989.87 C 906.329 965.143 916.164 941.44 933.648 923.955 C 951.128 906.471 974.835 896.637 999.563 896.613 Z  M 596.144 897.514 C 614.597 897.522 632.632 903.007 647.968 913.268 C 663.3 923.533 675.247 938.115 682.291 955.169 C 689.335 972.222 691.16 990.986 687.537 1009.076 C 683.913 1027.171 675.008 1043.782 661.94 1056.809 C 648.869 1069.841 632.232 1078.699 614.128 1082.266 C 596.023 1085.834 577.268 1083.949 560.234 1076.853 C 543.201 1069.757 528.655 1057.766 518.439 1042.403 C 508.222 1027.035 502.794 1008.985 502.841 990.532 C 502.866 965.808 512.699 942.101 530.182 924.617 C 547.666 907.133 571.372 897.302 596.097 897.274 L 596.144 897.514 Z  M 1505.846 1230.488 C 1501.166 1256.583 1490.805 1281.331 1475.501 1302.977 C 1460.194 1324.623 1440.317 1342.637 1417.276 1355.748 C 1369.467 1378.961 1317.7 1392.917 1264.701 1396.884 C 1234.784 1401.193 1203.873 1405.642 1173.624 1413.12 C 1093.1 1436.437 1015.329 1468.388 941.665 1508.415 C 791.888 1582.781 662.371 1647.021 540.617 1562.522 C 451.289 1500.602 455.408 1386.045 465.822 1323.271 C 478.078 1266.15 498.518 1211.094 526.51 1159.814 L 539.291 1133.352 C 552.007 1138.435 565.35 1141.779 578.961 1143.294 C 566.912 1185.849 570.279 1231.293 588.466 1271.608 C 606.654 1311.922 638.494 1344.523 678.372 1363.653 L 689.969 1369.617 L 702.231 1365.264 C 770.617 1340.576 833.1 1301.88 885.664 1251.652 C 920.389 1218.987 950.889 1182.105 976.462 1141.871 C 1009.178 1146.85 1042.624 1141.113 1071.816 1125.523 C 1101.005 1109.932 1124.373 1085.32 1138.429 1055.358 C 1152.485 1025.401 1156.475 991.7 1149.81 959.283 C 1143.141 926.869 1126.171 897.482 1101.435 875.501 L 1197.909 680.419 L 1295.377 879.24 C 1267.647 905.965 1250.984 942.149 1248.704 980.598 C 1246.424 1019.042 1258.69 1056.941 1283.071 1086.759 C 1307.447 1116.577 1342.153 1136.13 1380.287 1141.536 C 1418.42 1146.942 1457.192 1137.801 1488.896 1115.931 C 1506.475 1151.41 1512.359 1191.549 1505.702 1230.584 L 1505.846 1230.488 Z " fill="rgb(255,255,255)"/></g></g></svg>