<?xml version="1.0" encoding="UTF-8" standalone="no"?><!-- Generator: Gravit.io --><svg xmlns="http://www.w3.org/2000/svg" xmlns:xlink="http://www.w3.org/1999/xlink" style="isolation:isolate" viewBox="0 0 60 60" width="60pt" height="60pt"><defs><clipPath id="_clipPath_pyOHtRcEXR0eHc9qDi2b7TNUbxYQqBgU"><rect width="60" height="60"/></clipPath></defs><g clip-path="url(#_clipPath_pyOHtRcEXR0eHc9qDi2b7TNUbxYQqBgU)"><clipPath id="_clipPath_DLKe69LiUSOg5x1g1fi8lODb1p2PYrVf"><rect x="11" y="11" width="38" height="38" transform="matrix(1,0,0,1,0,0)" fill="rgb(255,255,255)"/></clipPath><g clip-path="url(#_clipPath_DLKe69LiUSOg5x1g1fi8lODb1p2PYrVf)"><g><path d=" M 13.415 20.294 C 10.048 25.13 10.466 31.419 13.039 36.553 C 13.098 36.679 13.163 36.797 13.226 36.916 C 13.263 36.998 13.304 37.074 13.348 37.154 C 13.369 37.196 13.397 37.242 13.423 37.283 C 13.464 37.366 13.508 37.445 13.551 37.524 L 13.799 37.945 C 13.847 38.023 13.89 38.099 13.942 38.176 C 14.031 38.325 14.132 38.472 14.224 38.621 C 14.265 38.685 14.303 38.745 14.349 38.807 C 14.502 39.048 14.666 39.283 14.84 39.511 C 14.963 39.68 15.087 39.845 15.22 40.01 C 15.262 40.07 15.311 40.13 15.356 40.192 L 15.704 40.618 C 15.748 40.665 15.791 40.724 15.837 40.775 C 15.992 40.961 16.157 41.144 16.322 41.329 L 16.33 41.338 C 16.531 41.592 16.756 41.825 17.002 42.035 C 17.129 42.166 17.256 42.296 17.39 42.423 L 17.55 42.576 C 17.726 42.743 17.903 42.907 18.089 43.066 C 18.092 43.066 18.093 43.069 18.097 43.07 L 18.187 43.15 C 18.348 43.291 18.511 43.431 18.678 43.561 L 18.876 43.728 C 19.01 43.835 19.151 43.938 19.287 44.044 L 19.504 44.21 C 19.651 44.321 19.808 44.431 19.959 44.538 C 20.014 44.578 20.069 44.617 20.126 44.654 L 20.174 44.69 L 20.617 44.983 L 20.807 45.11 C 21.042 45.259 21.273 45.401 21.504 45.54 C 21.569 45.572 21.637 45.61 21.699 45.648 C 21.87 45.746 22.047 45.846 22.22 45.938 C 22.315 45.992 22.413 46.038 22.511 46.087 C 22.63 46.153 22.753 46.218 22.881 46.285 C 22.912 46.294 22.942 46.306 22.97 46.321 C 23.022 46.345 23.071 46.37 23.122 46.395 C 23.312 46.49 23.51 46.582 23.716 46.673 C 23.754 46.688 23.795 46.704 23.836 46.726 C 24.064 46.826 24.294 46.921 24.53 47.015 C 24.583 47.03 24.64 47.057 24.696 47.078 C 24.91 47.159 25.13 47.241 25.347 47.319 L 25.426 47.347 C 25.67 47.429 25.909 47.509 26.154 47.585 C 26.211 47.6 26.27 47.621 26.33 47.637 C 26.583 47.713 26.827 47.803 27.08 47.854 C 43.346 50.818 48.072 38.073 48.072 38.073 C 44.101 43.245 37.055 44.608 30.38 43.091 C 30.133 43.034 29.886 42.955 29.636 42.882 C 29.335 42.793 29.035 42.697 28.738 42.594 L 28.64 42.556 C 28.425 42.483 28.217 42.402 28.007 42.322 C 27.949 42.298 27.891 42.277 27.832 42.258 C 27.598 42.163 27.373 42.067 27.147 41.967 C 27.098 41.951 27.057 41.929 27.008 41.91 C 26.816 41.822 26.625 41.732 26.434 41.641 C 26.377 41.615 26.321 41.588 26.267 41.558 C 26.118 41.489 25.969 41.408 25.823 41.332 C 25.723 41.284 25.624 41.233 25.527 41.18 C 25.347 41.085 25.168 40.982 24.989 40.884 C 24.935 40.846 24.873 40.814 24.811 40.779 C 24.577 40.641 24.346 40.498 24.116 40.352 C 24.053 40.313 23.99 40.272 23.93 40.228 C 23.761 40.124 23.597 40.015 23.435 39.901 C 23.38 39.864 23.329 39.825 23.272 39.785 C 23.115 39.676 22.959 39.564 22.805 39.449 C 22.739 39.396 22.668 39.345 22.596 39.291 C 22.457 39.18 22.316 39.077 22.177 38.962 L 21.99 38.811 C 21.81 38.667 21.633 38.519 21.46 38.368 C 21.442 38.35 21.422 38.333 21.401 38.319 L 20.852 37.819 L 20.693 37.67 C 20.563 37.537 20.43 37.41 20.297 37.28 L 20.142 37.122 C 19.975 36.955 19.812 36.785 19.653 36.61 L 19.629 36.585 C 19.461 36.401 19.297 36.213 19.134 36.023 C 19.091 35.976 19.05 35.922 19.007 35.869 L 18.648 35.431 C 18.465 35.196 18.285 34.959 18.109 34.72 C 14.407 29.668 13.068 22.691 16.03 16.971 L 13.415 20.294 Z  M 23.857 16.222 C 21.418 19.723 21.555 24.406 23.455 28.11 C 23.769 28.733 24.127 29.332 24.528 29.903 C 24.892 30.426 25.294 31.045 25.784 31.468 C 25.953 31.661 26.137 31.848 26.328 32.038 L 26.471 32.18 C 26.651 32.354 26.838 32.524 27.025 32.695 L 27.05 32.715 C 27.264 32.902 27.482 33.082 27.706 33.257 C 27.76 33.293 27.806 33.336 27.858 33.373 C 28.079 33.544 28.304 33.708 28.535 33.873 L 28.559 33.887 C 28.657 33.958 28.762 34.023 28.873 34.093 C 28.917 34.121 28.968 34.159 29.015 34.188 C 29.183 34.296 29.348 34.397 29.519 34.5 C 29.546 34.511 29.569 34.525 29.595 34.536 C 29.737 34.623 29.892 34.707 30.041 34.785 C 30.093 34.817 30.144 34.84 30.2 34.87 C 30.304 34.923 30.409 34.978 30.511 35.032 L 30.562 35.054 C 30.776 35.16 30.994 35.258 31.208 35.355 C 31.262 35.377 31.308 35.394 31.354 35.417 C 31.53 35.493 31.708 35.565 31.886 35.634 C 31.965 35.66 32.039 35.692 32.114 35.716 C 32.275 35.776 32.446 35.831 32.605 35.887 L 32.826 35.958 C 33.059 36.029 33.293 36.123 33.537 36.164 C 46.093 38.243 49 28.572 49 28.572 C 46.383 32.34 41.318 34.134 35.92 32.733 C 35.681 32.671 35.444 32.603 35.209 32.527 C 35.133 32.505 35.067 32.481 34.994 32.459 C 34.829 32.402 34.66 32.348 34.5 32.286 L 34.272 32.201 C 34.093 32.13 33.912 32.063 33.74 31.987 C 33.686 31.963 33.637 31.948 33.596 31.924 C 33.374 31.824 33.151 31.726 32.934 31.62 L 32.608 31.45 L 32.419 31.355 C 32.277 31.28 32.138 31.201 32 31.118 C 31.966 31.101 31.933 31.083 31.902 31.062 C 31.734 30.958 31.558 30.857 31.398 30.749 C 31.344 30.719 31.295 30.682 31.245 30.651 L 30.915 30.435 C 30.687 30.277 30.464 30.106 30.238 29.94 C 30.187 29.894 30.138 29.856 30.089 29.815 C 27.715 27.95 25.844 25.397 24.956 22.511 C 24.021 19.507 24.227 16.141 25.842 13.407 L 23.857 16.222 Z  M 32.638 13.174 C 31.199 15.286 31.061 17.908 32.052 20.236 C 33.105 22.71 35.257 24.653 37.765 25.571 C 37.868 25.611 37.967 25.644 38.075 25.682 L 38.214 25.725 C 38.36 25.773 38.507 25.825 38.658 25.858 C 45.594 27.196 47.472 22.296 47.977 21.577 C 46.326 23.949 43.557 24.517 40.159 23.69 C 39.882 23.621 39.609 23.537 39.342 23.437 C 39.009 23.32 38.682 23.186 38.363 23.035 C 37.76 22.743 37.186 22.393 36.65 21.99 C 33.607 19.683 31.721 15.283 33.707 11.698" fill="rgb(255,255,255)"/></g></g></g></svg>