<?xml version="1.0" encoding="UTF-8" standalone="no"?><!-- Generator: Gravit.io --><svg xmlns="http://www.w3.org/2000/svg" xmlns:xlink="http://www.w3.org/1999/xlink" style="isolation:isolate" viewBox="0 0 64 64" width="64pt" height="64pt"><defs><clipPath id="_clipPath_GWFjVwUK1Z3ObUQGWbAJB7I0EGhDZbTv"><rect width="64" height="64"/></clipPath></defs><g clip-path="url(#_clipPath_GWFjVwUK1Z3ObUQGWbAJB7I0EGhDZbTv)"><clipPath id="_clipPath_wIetW05WEMTeQx22JR35ZRoMlE3cyR7Y"><rect x="0" y="0" width="64" height="64" transform="matrix(1,0,0,1,0,0)" fill="rgb(255,255,255)"/></clipPath><g clip-path="url(#_clipPath_wIetW05WEMTeQx22JR35ZRoMlE3cyR7Y)"><g><path d="M 32.165 1 L 32.165 1 C 49.183 1 63 14.965 63 32.165 L 63 32.835 C 63 50.035 49.183 64 32.165 64 L 32.165 64 C 15.147 64 1.33 50.035 1.33 32.835 L 1.33 32.165 C 1.33 14.965 15.147 1 32.165 1 Z" style="stroke:none;fill:#FFFFFF;stroke-miterlimit:10;"/><path d=" M 48.3 4.438 C 27.132 -8.008 0.235 7.194 0.001 31.735 C -0.227 55.7 25.134 71.178 46.254 60.631 L 23.195 26.704 L 23.195 47.704 C 23.195 50.031 18.742 50.031 18.742 47.704 L 18.742 19.553 C 18.742 17.706 22.173 17.554 23.146 19.159 L 49.428 58.821 C 69.172 46.104 68.906 16.554 48.3 4.438 Z  M 45.33 44.181 L 40.864 37.359 L 40.864 18.682 C 40.864 16.941 45.33 16.941 45.33 18.682 L 45.33 44.181 L 45.33 44.181 Z " fill="rgb(0,0,0)"/></g></g></g></svg>