<?xml version="1.0" encoding="UTF-8" standalone="no"?><!-- Generator: Gravit.io --><svg xmlns="http://www.w3.org/2000/svg" xmlns:xlink="http://www.w3.org/1999/xlink" style="isolation:isolate" viewBox="0 0 60 60" width="60pt" height="60pt"><defs><clipPath id="_clipPath_cPXolm72t5gVCfYsodtiVlH7z3eN5BZY"><rect width="60" height="60"/></clipPath></defs><g clip-path="url(#_clipPath_cPXolm72t5gVCfYsodtiVlH7z3eN5BZY)"><clipPath id="_clipPath_pjbdjYGm7OAWD0QBiNB9OqCatlyndcYn"><rect x="11" y="11" width="38" height="38" transform="matrix(1,0,0,1,0,0)" fill="rgb(255,255,255)"/></clipPath><g clip-path="url(#_clipPath_pjbdjYGm7OAWD0QBiNB9OqCatlyndcYn)"><g><path d=" M 41.02 18.238 L 38.885 18.238 C 38.475 18.238 38.143 18.57 38.143 18.98 L 38.143 19.305 C 38.143 19.715 38.475 20.048 38.885 20.048 L 41.02 20.048 C 41.43 20.048 41.762 19.715 41.762 19.305 L 41.762 18.98 C 41.762 18.57 41.43 18.238 41.02 18.238 Z " fill="rgb(86,179,180)"/><path d=" M 21.115 47.191 L 11.742 47.191 C 11.332 47.191 11 47.523 11 47.933 L 11 48.258 C 11 48.668 11.332 49 11.742 49 L 21.115 49 C 21.525 49 21.857 48.668 21.857 48.258 L 21.857 47.933 C 21.857 47.523 21.525 47.191 21.115 47.191 Z " fill="rgb(234,94,94)"/><path d=" M 39.21 32.714 L 33.457 32.714 C 33.047 32.714 32.714 33.047 32.714 33.457 L 32.714 33.782 C 32.714 34.192 33.047 34.524 33.457 34.524 L 39.21 34.524 C 39.62 34.524 39.952 34.192 39.952 33.782 L 39.952 33.457 C 39.952 33.047 39.62 32.714 39.21 32.714 Z " fill="rgb(191,133,191)"/><path d=" M 30.163 32.714 L 22.599 32.714 C 22.19 32.714 21.857 33.047 21.857 33.457 L 21.857 33.782 C 21.857 34.192 22.19 34.524 22.599 34.524 L 30.163 34.524 C 30.572 34.524 30.905 34.192 30.905 33.782 L 30.905 33.457 C 30.905 33.047 30.572 32.714 30.163 32.714 Z " fill="rgb(234,94,94)"/><path d=" M 19.305 32.714 L 11.742 32.714 C 11.332 32.714 11 33.047 11 33.457 L 11 33.782 C 11 34.192 11.332 34.524 11.742 34.524 L 19.305 34.524 C 19.715 34.524 20.048 34.192 20.048 33.782 L 20.048 33.457 C 20.048 33.047 19.715 32.714 19.305 32.714 Z " fill="rgb(86,179,180)"/><path d=" M 21.115 39.952 L 11.742 39.952 C 11.332 39.952 11 40.285 11 40.695 L 11 41.02 C 11 41.43 11.332 41.762 11.742 41.762 L 21.115 41.762 C 21.525 41.762 21.857 41.43 21.857 41.02 L 21.857 40.695 C 21.857 40.285 21.525 39.952 21.115 39.952 Z " fill="rgb(191,133,191)"/><path d=" M 21.115 25.476 L 11.742 25.476 C 11.332 25.476 11 25.809 11 26.218 L 11 26.544 C 11 26.953 11.332 27.286 11.742 27.286 L 21.115 27.286 C 21.525 27.286 21.857 26.953 21.857 26.544 L 21.857 26.218 C 21.857 25.809 21.525 25.476 21.115 25.476 Z " fill="rgb(191,133,191)"/><path d=" M 39.21 14.619 L 20.79 14.619 C 20.38 14.619 20.048 14.951 20.048 15.361 L 20.048 15.686 C 20.048 16.096 20.38 16.429 20.79 16.429 L 39.21 16.429 C 39.62 16.429 39.952 16.096 39.952 15.686 L 39.952 15.361 C 39.952 14.951 39.62 14.619 39.21 14.619 Z " fill="rgb(247,186,62)"/><path d=" M 17.496 14.619 L 11.742 14.619 C 11.332 14.619 11 14.951 11 15.361 L 11 15.686 C 11 16.096 11.332 16.429 11.742 16.429 L 17.496 16.429 C 17.906 16.429 18.238 16.096 18.238 15.686 L 18.238 15.361 C 18.238 14.951 17.906 14.619 17.496 14.619 Z " fill="rgb(234,94,94)"/><path d=" M 21.115 43.572 L 18.98 43.572 C 18.57 43.572 18.238 43.904 18.238 44.314 L 18.238 44.639 C 18.238 45.049 18.57 45.381 18.98 45.381 L 21.115 45.381 C 21.525 45.381 21.857 45.049 21.857 44.639 L 21.857 44.314 C 21.857 43.904 21.525 43.572 21.115 43.572 Z " fill="rgb(247,186,62)"/><path d=" M 21.115 21.857 L 18.98 21.857 C 18.57 21.857 18.238 22.19 18.238 22.599 L 18.238 22.924 C 18.238 23.334 18.57 23.667 18.98 23.667 L 21.115 23.667 C 21.525 23.667 21.857 23.334 21.857 22.924 L 21.857 22.599 C 21.857 22.19 21.525 21.857 21.115 21.857 Z " fill="rgb(86,179,180)"/><path d=" M 15.686 43.572 L 11.742 43.572 C 11.332 43.572 11 43.904 11 44.314 L 11 44.639 C 11 45.049 11.332 45.381 11.742 45.381 L 15.686 45.381 C 16.096 45.381 16.429 45.049 16.429 44.639 L 16.429 44.314 C 16.429 43.904 16.096 43.572 15.686 43.572 Z " fill="rgb(86,179,180)"/><path d=" M 15.686 21.857 L 11.742 21.857 C 11.332 21.857 11 22.19 11 22.599 L 11 22.924 C 11 23.334 11.332 23.667 11.742 23.667 L 15.686 23.667 C 16.096 23.667 16.429 23.334 16.429 22.924 L 16.429 22.599 C 16.429 22.19 16.096 21.857 15.686 21.857 Z " fill="rgb(247,186,62)"/><g opacity="0.5"><path d=" M 37.401 43.572 L 35.266 43.572 C 34.856 43.572 34.524 43.904 34.524 44.314 L 34.524 44.639 C 34.524 45.049 34.856 45.381 35.266 45.381 L 37.401 45.381 C 37.811 45.381 38.143 45.049 38.143 44.639 L 38.143 44.314 C 38.143 43.904 37.811 43.572 37.401 43.572 Z " fill="rgb(208,212,216)"/></g><g opacity="0.5"><path d=" M 31.972 43.572 L 24.409 43.572 C 23.999 43.572 23.667 43.904 23.667 44.314 L 23.667 44.639 C 23.667 45.049 23.999 45.381 24.409 45.381 L 31.972 45.381 C 32.382 45.381 32.714 45.049 32.714 44.639 L 32.714 44.314 C 32.714 43.904 32.382 43.572 31.972 43.572 Z " fill="rgb(208,212,216)"/></g><g opacity="0.5"><path d=" M 48.258 43.572 L 40.695 43.572 C 40.285 43.572 39.952 43.904 39.952 44.314 L 39.952 44.639 C 39.952 45.049 40.285 45.381 40.695 45.381 L 48.258 45.381 C 48.668 45.381 49 45.049 49 44.639 L 49 44.314 C 49 43.904 48.668 43.572 48.258 43.572 Z " fill="rgb(208,212,216)"/></g><path d=" M 41.02 29.095 L 26.218 29.095 C 25.809 29.095 25.476 29.428 25.476 29.838 L 25.476 30.163 C 25.476 30.572 25.809 30.905 26.218 30.905 L 41.02 30.905 C 41.43 30.905 41.762 30.572 41.762 30.163 L 41.762 29.838 C 41.762 29.428 41.43 29.095 41.02 29.095 Z " fill="rgb(86,179,180)"/><path d=" M 22.924 29.095 L 17.171 29.095 C 16.761 29.095 16.429 29.428 16.429 29.838 L 16.429 30.163 C 16.429 30.572 16.761 30.905 17.171 30.905 L 22.924 30.905 C 23.334 30.905 23.667 30.572 23.667 30.163 L 23.667 29.838 C 23.667 29.428 23.334 29.095 22.924 29.095 Z " fill="rgb(247,186,62)"/><path d=" M 13.877 29.095 L 11.742 29.095 C 11.332 29.095 11 29.428 11 29.838 L 11 30.163 C 11 30.572 11.332 30.905 11.742 30.905 L 13.877 30.905 C 14.287 30.905 14.619 30.572 14.619 30.163 L 14.619 29.838 C 14.619 29.428 14.287 29.095 13.877 29.095 Z " fill="rgb(234,94,94)"/><path d=" M 35.591 18.238 L 28.028 18.238 C 27.618 18.238 27.286 18.57 27.286 18.98 L 27.286 19.305 C 27.286 19.715 27.618 20.048 28.028 20.048 L 35.591 20.048 C 36.001 20.048 36.333 19.715 36.333 19.305 L 36.333 18.98 C 36.333 18.57 36.001 18.238 35.591 18.238 Z " fill="rgb(191,133,191)"/><path d=" M 24.734 18.238 L 11.742 18.238 C 11.332 18.238 11 18.57 11 18.98 L 11 19.305 C 11 19.715 11.332 20.048 11.742 20.048 L 24.734 20.048 C 25.144 20.048 25.476 19.715 25.476 19.305 L 25.476 18.98 C 25.476 18.57 25.144 18.238 24.734 18.238 Z " fill="rgb(86,179,180)"/><path d=" M 33.782 36.333 L 17.171 36.333 C 16.761 36.333 16.429 36.666 16.429 37.076 L 16.429 37.401 C 16.429 37.811 16.761 38.143 17.171 38.143 L 33.782 38.143 C 34.192 38.143 34.524 37.811 34.524 37.401 L 34.524 37.076 C 34.524 36.666 34.192 36.333 33.782 36.333 Z " fill="rgb(247,186,62)"/><path d=" M 13.877 36.333 L 11.742 36.333 C 11.332 36.333 11 36.666 11 37.076 L 11 37.401 C 11 37.811 11.332 38.143 11.742 38.143 L 13.877 38.143 C 14.287 38.143 14.619 37.811 14.619 37.401 L 14.619 37.076 C 14.619 36.666 14.287 36.333 13.877 36.333 Z " fill="rgb(191,133,191)"/><path d=" M 42.829 21.857 L 33.457 21.857 C 33.047 21.857 32.714 22.19 32.714 22.599 L 32.714 22.924 C 32.714 23.334 33.047 23.667 33.457 23.667 L 42.829 23.667 C 43.239 23.667 43.572 23.334 43.572 22.924 L 43.572 22.599 C 43.572 22.19 43.239 21.857 42.829 21.857 Z " fill="rgb(234,94,94)"/><path d=" M 42.829 25.476 L 33.457 25.476 C 33.047 25.476 32.714 25.809 32.714 26.218 L 32.714 26.544 C 32.714 26.953 33.047 27.286 33.457 27.286 L 42.829 27.286 C 43.239 27.286 43.572 26.953 43.572 26.544 L 43.572 26.218 C 43.572 25.809 43.239 25.476 42.829 25.476 Z " fill="rgb(247,186,62)"/><path d=" M 33.782 11 L 11.742 11 C 11.332 11 11 11.332 11 11.742 L 11 12.067 C 11 12.477 11.332 12.809 11.742 12.809 L 33.782 12.809 C 34.192 12.809 34.524 12.477 34.524 12.067 L 34.524 11.742 C 34.524 11.332 34.192 11 33.782 11 Z " fill="rgb(86,179,180)"/><g opacity="0.5"><path d=" M 48.258 11 L 37.076 11 C 36.666 11 36.333 11.332 36.333 11.742 L 36.333 12.067 C 36.333 12.477 36.666 12.809 37.076 12.809 L 48.258 12.809 C 48.668 12.809 49 12.477 49 12.067 L 49 11.742 C 49 11.332 48.668 11 48.258 11 Z " fill="rgb(208,212,216)"/></g><g opacity="0.5"><path d=" M 41.02 36.333 L 37.076 36.333 C 36.666 36.333 36.333 36.666 36.333 37.076 L 36.333 37.401 C 36.333 37.811 36.666 38.143 37.076 38.143 L 41.02 38.143 C 41.43 38.143 41.762 37.811 41.762 37.401 L 41.762 37.076 C 41.762 36.666 41.43 36.333 41.02 36.333 Z " fill="rgb(208,212,216)"/></g><g opacity="0.5"><path d=" M 48.258 36.333 L 44.314 36.333 C 43.904 36.333 43.572 36.666 43.572 37.076 L 43.572 37.401 C 43.572 37.811 43.904 38.143 44.314 38.143 L 48.258 38.143 C 48.668 38.143 49 37.811 49 37.401 L 49 37.076 C 49 36.666 48.668 36.333 48.258 36.333 Z " fill="rgb(208,212,216)"/></g><g opacity="0.5"><path d=" M 48.258 32.714 L 42.504 32.714 C 42.094 32.714 41.762 33.047 41.762 33.457 L 41.762 33.782 C 41.762 34.192 42.094 34.524 42.504 34.524 L 48.258 34.524 C 48.668 34.524 49 34.192 49 33.782 L 49 33.457 C 49 33.047 48.668 32.714 48.258 32.714 Z " fill="rgb(208,212,216)"/></g><g opacity="0.5"><path d=" M 48.258 14.619 L 42.504 14.619 C 42.094 14.619 41.762 14.951 41.762 15.361 L 41.762 15.686 C 41.762 16.096 42.094 16.429 42.504 16.429 L 48.258 16.429 C 48.668 16.429 49 16.096 49 15.686 L 49 15.361 C 49 14.951 48.668 14.619 48.258 14.619 Z " fill="rgb(208,212,216)"/></g><g opacity="0.5"><path d=" M 48.258 29.095 L 44.314 29.095 C 43.904 29.095 43.572 29.428 43.572 29.838 L 43.572 30.163 C 43.572 30.572 43.904 30.905 44.314 30.905 L 48.258 30.905 C 48.668 30.905 49 30.572 49 30.163 L 49 29.838 C 49 29.428 48.668 29.095 48.258 29.095 Z " fill="rgb(208,212,216)"/></g><g opacity="0.5"><path d=" M 48.258 18.238 L 44.314 18.238 C 43.904 18.238 43.572 18.57 43.572 18.98 L 43.572 19.305 C 43.572 19.715 43.904 20.048 44.314 20.048 L 48.258 20.048 C 48.668 20.048 49 19.715 49 19.305 L 49 18.98 C 49 18.57 48.668 18.238 48.258 18.238 Z " fill="rgb(208,212,216)"/></g><g opacity="0.5"><path d=" M 48.258 21.857 L 46.123 21.857 C 45.713 21.857 45.381 22.19 45.381 22.599 L 45.381 22.924 C 45.381 23.334 45.713 23.667 46.123 23.667 L 48.258 23.667 C 48.668 23.667 49 23.334 49 22.924 L 49 22.599 C 49 22.19 48.668 21.857 48.258 21.857 Z " fill="rgb(208,212,216)"/></g><g opacity="0.5"><path d=" M 48.258 25.476 L 46.123 25.476 C 45.713 25.476 45.381 25.809 45.381 26.218 L 45.381 26.544 C 45.381 26.953 45.713 27.286 46.123 27.286 L 48.258 27.286 C 48.668 27.286 49 26.953 49 26.544 L 49 26.218 C 49 25.809 48.668 25.476 48.258 25.476 Z " fill="rgb(208,212,216)"/></g><g opacity="0.5"><path d=" M 48.258 39.952 L 31.647 39.952 C 31.237 39.952 30.905 40.285 30.905 40.695 L 30.905 41.02 C 30.905 41.43 31.237 41.762 31.647 41.762 L 48.258 41.762 C 48.668 41.762 49 41.43 49 41.02 L 49 40.695 C 49 40.285 48.668 39.952 48.258 39.952 Z " fill="rgb(208,212,216)"/></g><g opacity="0.5"><path d=" M 28.353 39.952 L 24.409 39.952 C 23.999 39.952 23.667 40.285 23.667 40.695 L 23.667 41.02 C 23.667 41.43 23.999 41.762 24.409 41.762 L 28.353 41.762 C 28.763 41.762 29.095 41.43 29.095 41.02 L 29.095 40.695 C 29.095 40.285 28.763 39.952 28.353 39.952 Z " fill="rgb(208,212,216)"/></g><g opacity="0.5"><path d=" M 48.258 47.191 L 38.885 47.191 C 38.475 47.191 38.143 47.523 38.143 47.933 L 38.143 48.258 C 38.143 48.668 38.475 49 38.885 49 L 48.258 49 C 48.668 49 49 48.668 49 48.258 L 49 47.933 C 49 47.523 48.668 47.191 48.258 47.191 Z " fill="rgb(208,212,216)"/></g><g opacity="0.5"><path d=" M 35.591 47.191 L 24.409 47.191 C 23.999 47.191 23.667 47.523 23.667 47.933 L 23.667 48.258 C 23.667 48.668 23.999 49 24.409 49 L 35.591 49 C 36.001 49 36.333 48.668 36.333 48.258 L 36.333 47.933 C 36.333 47.523 36.001 47.191 35.591 47.191 Z " fill="rgb(208,212,216)"/></g><g opacity="0.5"><path d=" M 30.163 21.857 L 24.409 21.857 C 23.999 21.857 23.667 22.19 23.667 22.599 L 23.667 22.924 C 23.667 23.334 23.999 23.667 24.409 23.667 L 30.163 23.667 C 30.572 23.667 30.905 23.334 30.905 22.924 L 30.905 22.599 C 30.905 22.19 30.572 21.857 30.163 21.857 Z " fill="rgb(208,212,216)"/></g><g opacity="0.5"><path d=" M 30.163 25.476 L 24.409 25.476 C 23.999 25.476 23.667 25.809 23.667 26.218 L 23.667 26.544 C 23.667 26.953 23.999 27.286 24.409 27.286 L 30.163 27.286 C 30.572 27.286 30.905 26.953 30.905 26.544 L 30.905 26.218 C 30.905 25.809 30.572 25.476 30.163 25.476 Z " fill="rgb(208,212,216)"/></g></g></g></g></svg>