<?xml version="1.0" encoding="UTF-8" standalone="no"?><!-- Generator: Gravit.io --><svg xmlns="http://www.w3.org/2000/svg" xmlns:xlink="http://www.w3.org/1999/xlink" style="isolation:isolate" viewBox="0 0 2000 2000" width="2000pt" height="2000pt"><defs><clipPath id="_clipPath_PWvV1gGTnKgDMeAT507afkFZvJVRlgr4"><rect width="2000" height="2000"/></clipPath></defs><g clip-path="url(#_clipPath_PWvV1gGTnKgDMeAT507afkFZvJVRlgr4)"><clipPath id="_clipPath_6ahCK7NDk1CXK6nLVWLotBTTtq3wwCKF"><rect x="400" y="400" width="1200" height="1200" transform="matrix(1,0,0,1,0,0)" fill="rgb(255,255,255)"/></clipPath><g clip-path="url(#_clipPath_6ahCK7NDk1CXK6nLVWLotBTTtq3wwCKF)"><g><path d=" M 1231.639 1225.186 C 1275.177 1221.476 1308.777 1183.186 1306.639 1137.476 C 1304.277 1091.762 1266.777 1055.086 1221.287 1055.086 L 1218.139 1055.086 C 1195.484 1055.898 1174.08 1065.672 1158.628 1082.26 C 1143.18 1098.852 1134.95 1120.897 1135.749 1143.548 C 1137.287 1167.586 1147.039 1186.9 1160.539 1201.148 C 1108.001 1303.114 1029.477 1377.962 910.149 1441 C 830.087 1482.814 745.487 1498.638 663.1 1487.314 C 594.138 1477.748 540.25 1446.924 507.25 1397.462 C 457.788 1322.462 453.288 1241.8 494.538 1160.762 C 524.575 1102.376 569.538 1059.548 599.388 1038.662 C 590.416 1013.538 583.432 987.744 578.5 961.524 C 356.65 1120.338 379.3 1337.724 446.688 1440.286 C 496.9 1515.286 599.388 1563.138 711.7 1563.138 C 741.814 1563.138 773.239 1561 803.914 1553.348 C 998.877 1515.848 1146.325 1399.038 1230.849 1226.8 L 1231.639 1225.186 Z  M 1499.011 1037.914 C 1383.025 901.562 1212.101 826.562 1017.401 826.562 L 991.787 826.562 C 979.301 799 949.977 781.676 916.977 781.676 L 914.839 781.676 C 867.587 781.676 830.839 822.286 832.377 869.386 C 833.987 914.276 872.014 951.776 917.725 951.776 L 921.477 951.776 C 937.696 951.116 953.384 945.814 966.679 936.501 C 979.973 927.188 990.316 914.254 996.477 899.238 L 1024.187 899.238 C 1139.649 899.238 1248.849 933.024 1348.639 998.876 C 1424.801 1049.014 1479.701 1115.086 1510.339 1193.762 C 1537.301 1258 1535.725 1321.114 1507.977 1373.648 C 1465.414 1455.848 1393.339 1499.386 1298.425 1499.386 C 1238.463 1499.386 1180.077 1480.638 1149.963 1467.176 C 1132.001 1482.024 1101.925 1506.814 1080.214 1521.886 C 1146.249 1551.738 1212.849 1568.948 1277.314 1568.948 C 1423.414 1568.948 1532.014 1486.714 1573.225 1407.248 C 1618.111 1317.4 1614.439 1166.014 1499.763 1036.338 L 1499.011 1037.914 Z  M 724.414 1252.148 C 725.438 1274.213 734.873 1295.048 750.783 1310.371 C 766.692 1325.693 787.863 1334.342 809.949 1334.538 L 812.914 1334.538 C 824.172 1334.269 835.266 1331.753 845.539 1327.139 C 855.811 1322.522 865.058 1315.897 872.734 1307.655 C 880.411 1299.413 886.361 1289.718 890.236 1279.145 C 894.11 1268.569 895.834 1257.324 895.301 1246.076 C 895.301 1201.114 856.449 1163.614 810.739 1163.614 L 807.587 1163.614 C 804.701 1163.614 800.201 1163.614 796.301 1165.224 C 734.201 1060.338 707.988 947.838 717.739 826.524 C 723.625 735.138 753.701 655.825 807.587 589.825 C 852.549 533.762 937.077 505.825 994.901 504.475 C 1156.639 501.325 1224.211 703.075 1229.314 783.176 L 1304.314 805.638 C 1286.911 559.937 1134.214 431.05 988.114 431.05 C 851.014 431.05 724.414 530.65 673.45 676.75 C 603.888 871.714 649.6 1058.8 734.949 1208.8 C 727.563 1218.362 723.063 1235.762 724.414 1252.148 Z " fill="rgb(255,255,255)"/></g></g></g></svg>