<?xml version="1.0" encoding="UTF-8" standalone="no"?><!-- Generator: Gravit.io --><svg xmlns="http://www.w3.org/2000/svg" xmlns:xlink="http://www.w3.org/1999/xlink" style="isolation:isolate" viewBox="0 0 64 64" width="64pt" height="64pt"><defs><clipPath id="_clipPath_t2CojKx9guI3bdbkWdH330hPuIhAUGno"><rect width="64" height="64"/></clipPath></defs><g clip-path="url(#_clipPath_t2CojKx9guI3bdbkWdH330hPuIhAUGno)"><clipPath id="_clipPath_97qQoIZuhcGjBkfMDVAHkMAK7OZTySwO"><rect x="0" y="0" width="64" height="64" transform="matrix(1,0,0,1,0,0)" fill="rgb(255,255,255)"/></clipPath><g clip-path="url(#_clipPath_97qQoIZuhcGjBkfMDVAHkMAK7OZTySwO)"><g><path d="M 30.571 2 L 33.429 2 C 49.198 2 62 14.802 62 30.571 L 62 33.429 C 62 49.198 49.198 62 33.429 62 L 30.571 62 C 14.802 62 2 49.198 2 33.429 L 2 30.571 C 2 14.802 14.802 2 30.571 2 Z" style="stroke:none;fill:#FFFFFF;stroke-miterlimit:10;"/><path d=" M 32 0 C 49.678 0 64 14.322 64 32 C 64 49.678 49.678 64 32 64 C 14.322 64 0 49.678 0 32 C 0 14.322 14.322 0 32 0 Z  M 25.634 42.656 C 26.104 44.386 26.052 45.99 25.572 47.438 L 25.404 47.918 C 25.342 48.084 25.26 48.24 25.196 48.388 C 24.811 49.178 24.313 49.907 23.718 50.554 C 21.852 52.576 19.26 53.346 18.144 52.7 C 16.936 52.002 17.538 49.138 19.696 46.854 C 22.018 44.406 25.352 42.832 25.352 42.832 L 25.352 42.824 L 25.634 42.656 Z  M 52.072 13.698 C 50.624 8.01 41.198 6.146 32.28 9.312 C 26.968 11.198 21.23 14.158 17.094 18.022 C 12.176 22.614 11.396 26.614 11.72 28.28 C 12.864 34.176 20.938 38.042 24.262 40.896 L 24.262 40.918 C 23.28 41.396 16.116 44.99 14.438 48.72 C 12.636 52.634 14.72 55.438 16.072 55.792 C 20.272 56.958 24.594 54.832 26.918 51.394 C 29.158 48.032 28.958 43.72 27.99 41.594 C 29.312 41.24 30.876 41.072 32.876 41.312 C 38.482 41.958 39.596 45.48 39.356 46.918 C 39.116 48.356 37.958 49.198 37.554 49.438 C 37.16 49.678 37.034 49.75 37.074 49.918 C 37.116 50.158 37.314 50.158 37.636 50.116 C 38.074 50.044 40.554 48.918 40.678 46.198 C 40.792 42.75 37.51 38.918 31.678 38.99 C 29.272 39.044 27.75 39.24 26.678 39.678 C 26.6 39.569 26.505 39.474 26.396 39.396 C 22.794 35.522 16.116 32.804 16.396 27.636 C 16.482 25.762 17.158 20.804 29.198 14.804 C 39.072 9.876 46.958 11.242 48.312 14.242 C 50.272 18.522 44.114 26.482 33.834 27.636 C 29.916 28.074 27.874 26.564 27.354 26.002 C 26.792 25.396 26.72 25.356 26.508 25.482 C 26.196 25.636 26.394 26.16 26.508 26.482 C 26.83 27.282 28.07 28.68 30.238 29.396 C 32.112 30.002 36.718 30.356 42.238 28.198 C 48.436 25.804 53.27 19.126 51.872 13.52 L 52.072 13.698 Z " fill="rgb(204,102,153)"/></g></g></g></svg>