<svg width="48" height="48" viewBox="0 0 48 48" fill="none" xmlns="http://www.w3.org/2000/svg">
<path d="M0 2C0 0.895431 0.895431 0 2 0H46C47.1046 0 48 0.895431 48 2V46C48 47.1046 47.1046 48 46 48H2C0.895431 48 0 47.1046 0 46V2Z" fill="#EA4C89"/>
<path fill-rule="evenodd" clip-rule="evenodd" d="M24 8C15.1667 8 8 15.1667 8 24C8 32.8333 15.1667 40 24 40C32.816 40 40 32.8333 40 24C40 15.1667 32.816 8 24 8ZM34.568 15.3747C36.538 17.7738 37.6281 20.7745 37.6573 23.8787C37.2067 23.792 32.6947 22.872 28.148 23.4453C28.0427 23.2187 27.956 22.976 27.852 22.7333C27.5692 22.0659 27.2687 21.4061 26.9507 20.7547C31.9827 18.7067 34.2733 15.7573 34.568 15.3747ZM24 10.3613C27.4707 10.3613 30.6467 11.6613 33.0587 13.796C32.816 14.1427 30.7507 16.9027 25.892 18.724C23.652 14.612 21.172 11.244 20.7893 10.724C21.8418 10.4783 22.9193 10.3561 24 10.36V10.3613ZM18.1867 11.644C18.5507 12.1307 20.98 15.5147 23.2533 19.54C16.8667 21.2413 11.2267 21.2067 10.62 21.2067C11.5053 16.972 14.3693 13.4493 18.1867 11.644ZM10.3253 24.0173V23.6013C10.916 23.6187 17.544 23.7053 24.3653 21.6573C24.764 22.4213 25.128 23.2013 25.4747 23.9827C25.3013 24.0347 25.1107 24.0867 24.9373 24.1387C17.892 26.412 14.1427 32.624 13.8307 33.1453C11.5739 30.6407 10.3251 27.3887 10.3253 24.0173ZM24 37.6747C20.8413 37.6747 17.9267 36.5987 15.6187 34.7947C15.8613 34.2907 18.6373 28.9453 26.3427 26.256C26.3773 26.2387 26.396 26.2387 26.4293 26.2213C28.356 31.2013 29.136 35.384 29.3453 36.5813C27.696 37.2933 25.892 37.6747 24 37.6747ZM31.6187 35.332C31.48 34.4987 30.7507 30.508 28.9627 25.596C33.2493 24.92 36.9973 26.0307 37.4667 26.1867C36.876 29.9867 34.6893 33.2667 31.6187 35.332Z" fill="white"/>
</svg>
