<svg width="48" height="48" viewBox="0 0 48 48" fill="none" xmlns="http://www.w3.org/2000/svg">
<path d="M0 2C0 0.895431 0.895431 0 2 0H46C47.1046 0 48 0.895431 48 2V46C48 47.1046 47.1046 48 46 48H2C0.895431 48 0 47.1046 0 46V2Z" fill="#333333"/>
<path d="M29.3332 37.3333V32.1733C29.3832 31.5376 29.2973 30.8984 29.0812 30.2984C28.8651 29.6984 28.5237 29.1512 28.0798 28.6933C32.2665 28.2267 36.6665 26.64 36.6665 19.36C36.6662 17.4984 35.9501 15.7083 34.6665 14.36C35.2743 12.7313 35.2313 10.9311 34.5465 9.33333C34.5465 9.33333 32.9732 8.86666 29.3332 11.3067C26.2772 10.4784 23.0558 10.4784 19.9998 11.3067C16.3598 8.86666 14.7865 9.33333 14.7865 9.33333C14.1017 10.9311 14.0587 12.7313 14.6665 14.36C13.3733 15.7183 12.6565 17.5246 12.6665 19.4C12.6665 26.6267 17.0665 28.2133 21.2532 28.7333C20.8145 29.1866 20.4762 29.7272 20.2602 30.3199C20.0443 30.9126 19.9556 31.5441 19.9998 32.1733V37.3333M19.9998 33.3333C13.3332 35.3333 13.3332 30 10.6665 29.3333L19.9998 33.3333Z" stroke="white" stroke-width="2" stroke-linecap="round" stroke-linejoin="round"/>
</svg>
