<svg width="48" height="48" viewBox="0 0 48 48" fill="none" xmlns="http://www.w3.org/2000/svg">
<g clip-path="url(#clip0)">
<path d="M40.8973 40.8983H33.7852V29.7602C33.7852 27.1043 33.7378 23.6852 30.0862 23.6852C26.382 23.6852 25.8151 26.5791 25.8151 29.5669V40.8975H18.7033V17.9933H25.5307V21.1234H25.6263C26.3096 19.9551 27.297 18.994 28.4832 18.3425C29.6695 17.6909 31.0103 17.3733 32.3628 17.4235C39.5713 17.4235 40.9003 22.165 40.9003 28.3334L40.8973 40.8983ZM10.6783 14.8626C8.39884 14.863 6.55065 13.0154 6.55027 10.7359C6.5499 8.45649 8.39734 6.6083 10.6768 6.60792C12.9562 6.60736 14.8044 8.45499 14.8048 10.7344C14.805 11.8291 14.3703 12.8789 13.5965 13.6531C12.8226 14.4273 11.7729 14.8624 10.6783 14.8626ZM14.2344 40.8985H7.11484V17.9933H14.2342V40.8983L14.2344 40.8985ZM44.4429 0.00286024H3.54109C1.60796 -0.0188898 0.0226484 1.52967 -0.000976562 3.4628V44.5352C0.0218984 46.4693 1.60702 48.0194 3.5409 47.9991H44.4429C46.3809 48.0231 47.9722 46.473 47.999 44.5352V3.45961C47.9715 1.52274 46.38 -0.0256398 44.4429 -0.00032726" fill="#0A66C2"/>
</g>
<defs>
<clipPath id="clip0">
<rect width="48" height="48" fill="white"/>
</clipPath>
</defs>
</svg>
